<svg width="24" height="24" viewBox="0 0 24 24" fill="none" xmlns="http://www.w3.org/2000/svg">
<path d="M20.9752 3.0247C20.7866 2.83625 20.5512 2.70144 20.2932 2.63413C20.0353 2.56682 19.764 2.56944 19.5074 2.64173L2.0391 7.56864C1.74519 7.65153 1.48358 7.82216 1.28924 8.05772C1.0949 8.29327 0.977084 8.58253 0.951545 8.88684C0.926006 9.19115 0.993958 9.496 1.14632 9.76065C1.29868 10.0253 1.52819 10.2372 1.80418 10.3679L9.11045 13.8287L14.1057 8.83353C14.2463 8.69287 14.4371 8.61385 14.636 8.61385C14.835 8.61385 15.0257 8.69287 15.1664 8.83353C15.3071 8.9742 15.3861 9.16497 15.3861 9.3639C15.3861 9.56282 15.3071 9.7536 15.1664 9.89426L10.1712 14.8895L13.6321 22.1957C13.7519 22.4528 13.9429 22.6702 14.1823 22.8222C14.4218 22.9743 14.6997 23.0546 14.9834 23.0538C15.0263 23.0538 15.0696 23.052 15.1131 23.0484C15.418 23.0245 15.708 22.9073 15.9439 22.7127C16.1798 22.5181 16.35 22.2556 16.4313 21.9608L21.3582 4.49256C21.4304 4.23592 21.433 3.96469 21.3657 3.70672C21.2984 3.44874 21.1636 3.21334 20.9752 3.0247Z" fill="#261F2B"/>
</svg>
