<svg width="24" height="24" viewBox="0 0 24 24" fill="none" xmlns="http://www.w3.org/2000/svg">
<path d="M19.5 3H4.5C4.10232 3.00045 3.72105 3.15864 3.43984 3.43984C3.15864 3.72105 3.00045 4.10231 3 4.5V10C3 18.3863 10.1087 21.1679 11.5337 21.6404C11.8361 21.743 12.1639 21.743 12.4663 21.6404C13.8913 21.1679 21 18.3863 21 10V4.5C20.9995 4.10231 20.8414 3.72105 20.5602 3.43984C20.279 3.15864 19.8977 3.00045 19.5 3ZM11.25 8.25C11.25 8.05109 11.329 7.86032 11.4697 7.71967C11.6103 7.57902 11.8011 7.5 12 7.5C12.1989 7.5 12.3897 7.57902 12.5303 7.71967C12.671 7.86032 12.75 8.05109 12.75 8.25V12C12.75 12.1989 12.671 12.3897 12.5303 12.5303C12.3897 12.671 12.1989 12.75 12 12.75C11.8011 12.75 11.6103 12.671 11.4697 12.5303C11.329 12.3897 11.25 12.1989 11.25 12V8.25ZM12 16.5C11.7775 16.5 11.56 16.434 11.375 16.3104C11.19 16.1868 11.0458 16.0111 10.9606 15.8055C10.8755 15.6 10.8532 15.3738 10.8966 15.1555C10.94 14.9373 11.0472 14.7368 11.2045 14.5795C11.3618 14.4222 11.5623 14.315 11.7805 14.2716C11.9988 14.2282 12.225 14.2505 12.4305 14.3356C12.6361 14.4208 12.8118 14.565 12.9354 14.75C13.059 14.935 13.125 15.1525 13.125 15.375C13.125 15.6734 13.0065 15.9595 12.7955 16.1705C12.5845 16.3815 12.2984 16.5 12 16.5Z" fill="#FF3C38"/>
</svg>
