<svg width="40" height="40" viewBox="0 0 40 40" fill="none" xmlns="http://www.w3.org/2000/svg">
<rect width="40" height="40" rx="20" fill="#A45CF3"/>
<path d="M28.125 17.5001C28.1246 17.1687 27.9928 16.8509 27.7585 16.6166C27.5241 16.3823 27.2064 16.2504 26.875 16.2501H24.375V13.7501C24.3746 13.4187 24.2428 13.1009 24.0085 12.8666C23.7741 12.6323 23.4564 12.5004 23.125 12.5001H13.125C12.7936 12.5004 12.4759 12.6323 12.2415 12.8666C12.0072 13.1009 11.8754 13.4187 11.875 13.7501V23.7501C11.875 23.8681 11.9084 23.9837 11.9713 24.0835C12.0343 24.1833 12.1242 24.2632 12.2307 24.3141C12.3372 24.3649 12.4559 24.3846 12.5731 24.3708C12.6903 24.357 12.8012 24.3103 12.8929 24.2361L15.625 22.0274L15.6251 24.3751C15.6255 24.7065 15.7573 25.0242 15.9916 25.2585C16.226 25.4929 16.5437 25.6247 16.8751 25.6251H24.1866L27.1072 27.9861C27.1989 28.0603 27.3098 28.107 27.427 28.1208C27.5442 28.1346 27.6629 28.1149 27.7694 28.0641C27.8759 28.0132 27.9658 27.9333 28.0287 27.8335C28.0917 27.7337 28.1251 27.6181 28.1251 27.5001L28.125 17.5001ZM24.8006 24.514C24.6894 24.4241 24.5507 24.3751 24.4077 24.3751H16.8751L16.875 21.8751H23.125C23.4564 21.8747 23.7741 21.7429 24.0085 21.5085C24.2428 21.2742 24.3746 20.9565 24.375 20.6251V17.5001H26.875L26.8751 26.1911L24.8006 24.514Z" fill="white"/>
</svg>
