<svg width="24" height="24" viewBox="0 0 24 24" fill="none" xmlns="http://www.w3.org/2000/svg">
<path d="M11.9995 16.4996C13.1925 16.4984 14.3362 16.024 15.1798 15.1805C16.0235 14.337 16.4981 13.1933 16.4995 12.0004V5.99963C16.4995 4.80616 16.0254 3.66157 15.1815 2.81765C14.3376 1.97374 13.193 1.49963 11.9995 1.49963C10.806 1.49963 9.66145 1.97374 8.81753 2.81765C7.97362 3.66157 7.49951 4.80616 7.49951 5.99963V11.9996C7.50081 13.1927 7.97534 14.3365 8.81897 15.1802C9.6626 16.0238 10.8064 16.4983 11.9995 16.4996Z" fill="#261F2B"/>
<path d="M18.7905 12.0048C18.5931 11.985 18.3959 12.0434 18.2411 12.1674C18.0863 12.2915 17.9864 12.4714 17.9629 12.6683C17.7982 14.1348 17.099 15.4891 15.9989 16.4726C14.8988 17.4561 13.4748 17.9997 11.9992 17.9996C10.5235 17.9996 9.09963 17.4557 7.99961 16.4721C6.89959 15.4885 6.20056 14.1341 6.03611 12.6676C6.0119 12.471 5.9118 12.2916 5.75717 12.1678C5.60254 12.0439 5.40563 11.9854 5.20847 12.0048C5.01068 12.0267 4.8297 12.1263 4.70528 12.2816C4.58086 12.437 4.52317 12.6353 4.54489 12.8331C4.73581 14.5351 5.50632 16.1196 6.7271 17.3207C7.94789 18.5218 9.54467 19.2665 11.2495 19.4298V21.7496C11.2495 21.9486 11.3285 22.1393 11.4692 22.28C11.6098 22.4206 11.8006 22.4996 11.9995 22.4996C12.1984 22.4996 12.3892 22.4206 12.5298 22.28C12.6705 22.1393 12.7495 21.9486 12.7495 21.7496V19.4299C14.4546 19.267 16.0517 18.5223 17.2725 17.3209C18.4934 16.1196 19.2637 14.5347 19.4541 12.8324C19.4758 12.6347 19.4181 12.4364 19.2936 12.2812C19.1692 12.126 18.9882 12.0266 18.7905 12.0048Z" fill="#261F2B"/>
</svg>
