<svg width="24" height="24" viewBox="0 0 24 24" fill="none" xmlns="http://www.w3.org/2000/svg">
<path d="M22.3374 10.1583C22.2986 9.93852 22.2111 9.73025 22.0814 9.54869C21.9517 9.36713 21.783 9.21687 21.5877 9.10893L19.6636 8.04083C19.5404 7.80174 19.4055 7.56778 19.2605 7.34137L19.2976 5.13902C19.3019 4.91617 19.2563 4.69518 19.1642 4.49224C19.072 4.28931 18.9355 4.10958 18.7649 3.96623C17.8184 3.16906 16.738 2.54622 15.5738 2.1267C15.3641 2.05043 15.14 2.02204 14.9178 2.04359C14.6957 2.06514 14.4812 2.1361 14.2901 2.25126L12.4031 3.38354C12.1342 3.37077 11.8641 3.37049 11.5958 3.3829L9.70706 2.24966C9.51624 2.13442 9.30205 2.06338 9.08019 2.04173C8.85833 2.02008 8.63444 2.04838 8.42495 2.12455C7.26133 2.54564 6.1817 3.16995 5.23631 3.96843C5.06541 4.11191 4.92878 4.2918 4.8364 4.49492C4.74402 4.69805 4.69824 4.91926 4.70242 5.14236L4.7394 7.3427C4.59397 7.5691 4.45875 7.80289 4.3352 8.04156L2.40948 9.11053C2.21392 9.21868 2.04505 9.36924 1.91526 9.55117C1.78547 9.73309 1.69806 9.94177 1.65943 10.1619C1.44295 11.3791 1.44402 12.625 1.66259 13.8418C1.70141 14.0615 1.78888 14.2698 1.91859 14.4514C2.04831 14.6329 2.21699 14.7832 2.41228 14.8911L4.33635 15.9592C4.45962 16.1983 4.59448 16.4323 4.73945 16.6587L4.70242 18.861C4.69808 19.0839 4.74366 19.3049 4.83584 19.5078C4.92802 19.7107 5.06445 19.8905 5.23512 20.0338C6.18158 20.831 7.26203 21.4538 8.42619 21.8733C8.63591 21.9496 8.86003 21.978 9.08215 21.9565C9.30427 21.9349 9.51875 21.864 9.70989 21.7488L11.5969 20.6165C11.8658 20.6293 12.1359 20.6295 12.4042 20.6172L14.2929 21.7504C14.4838 21.8656 14.6979 21.9367 14.9198 21.9583C15.1417 21.9799 15.3655 21.9517 15.575 21.8755C16.7387 21.4544 17.8183 20.8301 18.7637 20.0316C18.9346 19.8881 19.0712 19.7083 19.1636 19.5051C19.256 19.302 19.3017 19.0808 19.2976 18.8577L19.2606 16.6574C19.406 16.4309 19.5412 16.1972 19.6648 15.9585L21.5905 14.8895C21.7861 14.7814 21.9549 14.6308 22.0847 14.4489C22.2145 14.2669 22.3019 14.0583 22.3406 13.8382C22.557 12.621 22.556 11.3751 22.3374 10.1583ZM16.1246 12C16.1246 12.8159 15.8827 13.6134 15.4294 14.2918C14.9762 14.9701 14.3319 15.4988 13.5782 15.811C12.8245 16.1232 11.9951 16.2049 11.1949 16.0458C10.3947 15.8866 9.6597 15.4937 9.08281 14.9168C8.50592 14.3399 8.11305 13.6049 7.95389 12.8048C7.79472 12.0046 7.87641 11.1752 8.18862 10.4215C8.50084 9.66771 9.02955 9.02348 9.7079 8.57021C10.3863 8.11695 11.1838 7.87503 11.9996 7.87503C13.0933 7.87626 14.1418 8.31125 14.9151 9.08457C15.6884 9.85789 16.1234 10.9064 16.1246 12Z" fill="#726B76"/>
</svg>
