<svg width="162" height="162" viewBox="0 0 162 162" fill="none" xmlns="http://www.w3.org/2000/svg">
<circle cx="81" cy="81" r="80.5" fill="white" stroke="#F3F1FB"/>
<path d="M81 81.0003C81 77.4641 82.4048 74.0727 84.9052 71.5722C87.4057 69.0718 90.7971 67.667 94.3333 67.667C97.8696 67.667 101.261 69.0718 103.761 71.5722C106.262 74.0727 107.667 77.4641 107.667 81.0003C107.667 84.5365 106.262 87.9279 103.761 90.4284C101.261 92.9289 97.8696 94.3337 94.3333 94.3337C90.7971 94.3337 87.4057 92.9289 84.9052 90.4284C82.4048 87.9279 81 84.5365 81 81.0003Z" fill="#1ABCFE"/>
<path d="M54.3333 107.666C54.3333 104.13 55.738 100.739 58.2385 98.238C60.739 95.7378 64.1304 94.333 67.6666 94.333H80.9999V107.666C80.9999 111.202 79.5951 114.594 77.0947 117.095C74.5942 119.595 71.2028 121 67.6666 121C64.1304 121 60.739 119.595 58.2385 117.095C55.738 114.594 54.3333 111.202 54.3333 107.666Z" fill="#0ACF83"/>
<path d="M81 41V67.6667H94.3333C97.8696 67.6667 101.261 66.2619 103.761 63.7614C106.262 61.2609 107.667 57.8696 107.667 54.3333C107.667 50.7971 106.262 47.4057 103.761 44.9052C101.261 42.4048 97.8696 41 94.3333 41H81Z" fill="#FF7262"/>
<path d="M54.3333 54.3333C54.3333 57.8696 55.738 61.2609 58.2385 63.7614C60.739 66.2619 64.1304 67.6667 67.6666 67.6667H80.9999V41H67.6666C64.1304 41 60.739 42.4048 58.2385 44.9052C55.738 47.4057 54.3333 50.7971 54.3333 54.3333Z" fill="#F24E1E"/>
<path d="M54.3333 81.0003C54.3333 84.5365 55.738 87.9279 58.2385 90.4284C60.739 92.9289 64.1304 94.3337 67.6666 94.3337H80.9999V67.667H67.6666C64.1304 67.667 60.739 69.0718 58.2385 71.5722C55.738 74.0727 54.3333 77.4641 54.3333 81.0003Z" fill="#A259FF"/>
</svg>
