<svg width="18" height="22" viewBox="0 0 18 22" fill="none" xmlns="http://www.w3.org/2000/svg">
<path d="M17.9781 0.540652C17.9781 0.403994 17.9157 0.274581 17.8089 0.189131C17.7026 0.103635 17.562 0.0722269 17.4292 0.101655L5.75099 2.73716C5.54576 2.78351 5.39988 2.96589 5.39988 3.17611V15.9911C4.82769 15.3431 4.03101 14.9389 3.14983 14.9389C1.41292 14.9389 0 16.5049 0 18.4262C0 20.3431 1.41292 21.9091 3.14983 21.9091C4.70278 21.9091 5.99349 20.6561 6.25016 19.0208H6.29983V3.53583L17.0782 1.10357V12.2206C16.4971 11.5646 15.6837 11.1546 14.7817 11.1546C13.0178 11.1546 11.5824 12.7161 11.5824 14.6375C11.5824 16.5588 13.0178 18.1203 14.7817 18.1203C16.4903 18.1203 17.8825 16.654 17.9682 14.8157H17.9781V0.540652Z" fill="#A45CF3"/>
</svg>
