<svg width="54" height="66" viewBox="0 0 54 66" fill="none" xmlns="http://www.w3.org/2000/svg">
<path d="M53.9344 1.62196C53.9344 1.21198 53.7471 0.823743 53.4268 0.567392C53.1078 0.310906 52.686 0.216681 52.2877 0.304966L17.253 8.21149C16.6373 8.35054 16.1996 8.89766 16.1996 9.52834V47.9732C14.4831 46.0292 12.093 44.8168 9.44948 44.8168C4.23877 44.8168 0 49.5146 0 55.2787C0 61.0294 4.23877 65.7272 9.44948 65.7272C14.1083 65.7272 17.9805 61.9683 18.7505 57.0625H18.8995V10.6075L51.2345 3.31072V36.6619C49.4914 34.6938 47.0512 33.4639 44.3451 33.4639C39.0534 33.4639 34.7471 38.1482 34.7471 43.9124C34.7471 49.6765 39.0534 54.3608 44.3451 54.3608C49.471 54.3608 53.6474 49.9619 53.9047 44.4472H53.9344V1.62196Z" fill="white"/>
</svg>
