<svg width="24" height="24" viewBox="0 0 24 24" fill="none" xmlns="http://www.w3.org/2000/svg">
<path d="M11.999 16.4996C13.192 16.4984 14.3357 16.024 15.1794 15.1805C16.023 14.337 16.4976 13.1933 16.499 12.0004V5.99963C16.499 4.80616 16.0249 3.66157 15.181 2.81765C14.3371 1.97374 13.1925 1.49963 11.999 1.49963C10.8055 1.49963 9.66096 1.97374 8.81704 2.81765C7.97313 3.66157 7.49902 4.80616 7.49902 5.99963V11.9996C7.50033 13.1927 7.97485 14.3365 8.81848 15.1802C9.66211 16.0238 10.8059 16.4983 11.999 16.4996Z" fill="#261F2B"/>
<path d="M18.7901 12.0048C18.5928 11.985 18.3955 12.0434 18.2407 12.1674C18.086 12.2915 17.9861 12.4714 17.9625 12.6683C17.7979 14.1348 17.0987 15.4891 15.9985 16.4726C14.8984 17.4561 13.4744 17.9997 11.9988 17.9996C10.5231 17.9996 9.09926 17.4557 7.99924 16.4721C6.89922 15.4885 6.2002 14.1341 6.03574 12.6676C6.01153 12.471 5.91143 12.2916 5.7568 12.1678C5.60217 12.0439 5.40526 11.9854 5.2081 12.0048C5.01031 12.0267 4.82933 12.1263 4.70491 12.2816C4.58049 12.437 4.52281 12.6353 4.54453 12.8331C4.73545 14.5351 5.50595 16.1196 6.72674 17.3207C7.94753 18.5218 9.5443 19.2665 11.2491 19.4298V21.7496C11.2491 21.9486 11.3281 22.1393 11.4688 22.28C11.6094 22.4206 11.8002 22.4996 11.9991 22.4996C12.198 22.4996 12.3888 22.4206 12.5294 22.28C12.6701 22.1393 12.7491 21.9486 12.7491 21.7496V19.4299C14.4542 19.267 16.0513 18.5223 17.2722 17.3209C18.4931 16.1196 19.2634 14.5347 19.4537 12.8324C19.4754 12.6347 19.4177 12.4364 19.2933 12.2812C19.1688 12.126 18.9879 12.0266 18.7901 12.0048Z" fill="#261F2B"/>
</svg>
