<svg width="22" height="18" viewBox="0 0 22 18" fill="none" xmlns="http://www.w3.org/2000/svg">
<path d="M14.75 14.624V9.74902H7.953C7.75409 9.74902 7.56332 9.67001 7.42267 9.52935C7.28202 9.3887 7.203 9.19794 7.203 8.99902C7.203 8.80011 7.28202 8.60935 7.42267 8.46869C7.56332 8.32804 7.75409 8.24902 7.953 8.24902H14.75V3.37402C14.7492 2.67807 14.4724 2.01086 13.9803 1.51874C13.4882 1.02663 12.8209 0.749817 12.125 0.749023H3.125C2.42905 0.749817 1.76183 1.02663 1.26972 1.51874C0.777611 2.01086 0.500794 2.67807 0.5 3.37402V14.624C0.500794 15.32 0.777611 15.9872 1.26972 16.4793C1.76183 16.9714 2.42905 17.2482 3.125 17.249H12.125C12.8209 17.2482 13.4882 16.9714 13.9803 16.4793C14.4724 15.9872 14.7492 15.32 14.75 14.624Z" fill="#261F2B"/>
<path d="M18.94 9.74997L16.47 12.22C16.3375 12.3621 16.2654 12.5502 16.2688 12.7445C16.2723 12.9388 16.351 13.1242 16.4884 13.2616C16.6258 13.399 16.8112 13.4777 17.0055 13.4811C17.1998 13.4846 17.3878 13.4124 17.53 13.28L21.28 9.52997C21.4205 9.38934 21.4993 9.19872 21.4993 8.99997C21.4993 8.80122 21.4205 8.61059 21.28 8.46997L17.53 4.71997C17.3878 4.58749 17.1998 4.51537 17.0055 4.51879C16.8112 4.52222 16.6258 4.60093 16.4884 4.73835C16.351 4.87576 16.2723 5.06115 16.2688 5.25545C16.2654 5.44975 16.3375 5.63779 16.47 5.77997L18.94 8.24997H14.75V9.74997H18.94Z" fill="#261F2B"/>
</svg>
