<svg width="32" height="32" viewBox="0 0 32 32" fill="none" xmlns="http://www.w3.org/2000/svg">
<path d="M25.9754 14C25.985 11.3623 24.9483 8.82837 23.0926 6.95384C21.2368 5.07931 18.7135 4.01715 16.0758 4.00025C16.0503 4.00013 16.025 4 15.9995 4C13.3508 4.00345 10.8119 5.05894 8.94132 6.93429C7.07077 8.80965 6.0218 11.3513 6.02516 14C6.02516 18.292 5.14027 20.7151 4.39808 21.9919C4.2208 22.2956 4.12673 22.6407 4.12536 22.9923C4.12399 23.344 4.21536 23.6898 4.39027 23.9948C4.56517 24.2999 4.81742 24.5535 5.12157 24.7299C5.42573 24.9064 5.77104 24.9996 6.12269 25H10.9998C10.9998 26.3261 11.5265 27.5979 12.4642 28.5355C13.4019 29.4732 14.6737 30 15.9998 30C17.3258 30 18.5976 29.4732 19.5353 28.5355C20.473 27.5979 20.9998 26.3261 20.9998 25H25.8768C26.2284 24.9996 26.5737 24.9064 26.8778 24.73C27.1819 24.5536 27.4342 24.3001 27.6091 23.9951C27.784 23.6901 27.8754 23.3443 27.8741 22.9927C27.8728 22.6411 27.7788 22.2961 27.6016 21.9924C26.8598 20.7155 25.9754 18.2922 25.9754 14ZM15.9998 28C15.2044 27.9991 14.4419 27.6827 13.8794 27.1203C13.317 26.5579 13.0007 25.7954 12.9998 25H18.9998C18.9989 25.7954 18.6825 26.5579 18.1201 27.1203C17.5577 27.6827 16.7951 27.9991 15.9998 28ZM28.1105 9.16004C27.9927 9.21815 27.8646 9.25248 27.7335 9.26106C27.6025 9.26963 27.471 9.25228 27.3466 9.21C27.2223 9.16773 27.1075 9.10135 27.0088 9.01467C26.9101 8.92799 26.8295 8.8227 26.7715 8.70484C25.7893 6.71174 24.2746 5.02939 22.3952 3.84412C22.2839 3.77415 22.1874 3.68291 22.1114 3.57564C22.0354 3.46837 21.9813 3.34716 21.9522 3.21895C21.9231 3.09075 21.9196 2.95806 21.9418 2.82849C21.964 2.69891 22.0116 2.57499 22.0818 2.46382C22.152 2.35265 22.2434 2.2564 22.3508 2.1806C22.4582 2.10479 22.5795 2.05091 22.7078 2.02203C22.836 1.99316 22.9687 1.98986 23.0982 2.01233C23.2278 2.03479 23.3516 2.08258 23.4627 2.15296C25.6542 3.53508 27.4205 5.49688 28.5657 7.82105C28.6237 7.93886 28.658 8.06694 28.6665 8.19799C28.675 8.32904 28.6577 8.46048 28.6154 8.58482C28.5731 8.70916 28.5068 8.82395 28.4202 8.92265C28.3335 9.02134 28.2283 9.10201 28.1105 9.16004ZM4.33021 9.26319C4.16033 9.26297 3.9933 9.2195 3.84486 9.13686C3.69643 9.05423 3.57149 8.93516 3.48181 8.79087C3.39213 8.64659 3.34067 8.48185 3.33228 8.31217C3.32389 8.14249 3.35884 7.97348 3.43385 7.82105C4.57907 5.49688 6.3453 3.53508 8.53688 2.15296C8.64792 2.08272 8.77172 2.03507 8.90119 2.0127C9.03066 1.99034 9.16327 1.99371 9.29144 2.02263C9.41961 2.05155 9.54082 2.10544 9.64815 2.18122C9.75548 2.25701 9.84683 2.35321 9.91696 2.46431C9.98709 2.57542 10.0346 2.69926 10.0569 2.82875C10.0791 2.95824 10.0756 3.09085 10.0466 3.21899C10.0176 3.34714 9.96358 3.4683 9.8877 3.57557C9.81182 3.68283 9.71554 3.77408 9.60438 3.84412C7.72493 5.02939 6.21024 6.71174 5.22804 8.70484C5.14548 8.87248 5.01761 9.01365 4.85892 9.11233C4.70024 9.21102 4.51708 9.26328 4.33021 9.26319Z" fill="#FF8C42"/>
</svg>
