<svg width="20" height="18" viewBox="0 0 20 18" fill="none" xmlns="http://www.w3.org/2000/svg">
<path d="M18.25 0.75H1.75C1.35231 0.750455 0.971048 0.908636 0.689842 1.18984C0.408636 1.47105 0.250455 1.85231 0.25 2.25V15.7501C0.250001 15.9471 0.288805 16.1421 0.364195 16.3241C0.439584 16.5061 0.550083 16.6715 0.689382 16.8107C0.828681 16.95 0.994051 17.0605 1.17605 17.1359C1.35805 17.2112 1.55311 17.25 1.75009 17.25L3.00537 17.2499C3.1472 17.2498 3.28611 17.2096 3.406 17.1338C3.52588 17.058 3.62182 16.9498 3.68268 16.8217C4.04792 16.0522 4.62397 15.4021 5.34392 14.9469C6.06388 14.4916 6.8982 14.25 7.75 14.25C8.6018 14.25 9.43612 14.4916 10.1561 14.9469C10.876 15.4021 11.4521 16.0522 11.8173 16.8217C11.8782 16.9498 11.9741 17.0581 12.094 17.1339C12.2139 17.2096 12.3529 17.2499 12.4947 17.2499L18.25 17.25C18.6477 17.2495 19.029 17.0914 19.3102 16.8102C19.5914 16.529 19.7495 16.1477 19.75 15.75V2.25C19.7495 1.85231 19.5914 1.47105 19.3102 1.18984C19.029 0.908636 18.6477 0.750455 18.25 0.75ZM7.75 12.75C7.15666 12.75 6.57664 12.5741 6.08329 12.2444C5.58994 11.9148 5.20542 11.4462 4.97836 10.8981C4.7513 10.3499 4.69189 9.74667 4.80764 9.16473C4.9234 8.58279 5.20912 8.04824 5.62868 7.62868C6.04824 7.20912 6.58279 6.9234 7.16473 6.80764C7.74667 6.69189 8.34987 6.7513 8.89805 6.97836C9.44623 7.20542 9.91476 7.58994 10.2444 8.08329C10.5741 8.57664 10.75 9.15666 10.75 9.75C10.7491 10.5454 10.4327 11.3079 9.87032 11.8703C9.3079 12.4327 8.54537 12.7491 7.75 12.75ZM18.25 15.75L12.9469 15.7499C12.6197 15.1861 12.2028 14.6795 11.7124 14.25H16C16.1989 14.25 16.3897 14.171 16.5303 14.0303C16.671 13.8897 16.75 13.6989 16.75 13.5V4.5C16.75 4.30109 16.671 4.11032 16.5303 3.96967C16.3897 3.82902 16.1989 3.75 16 3.75H4C3.80109 3.75 3.61032 3.82902 3.46967 3.96967C3.32902 4.11032 3.25 4.30109 3.25 4.5V13.5C3.25011 13.6666 3.30573 13.8285 3.40809 13.96C3.51044 14.0915 3.65369 14.1851 3.8152 14.2261C3.31296 14.6606 2.88645 15.1756 2.5531 15.75L1.75 15.7501V2.25H18.25V15.75Z" fill="#726B76"/>
</svg>
