<svg width="24" height="24" viewBox="0 0 24 24" fill="none" xmlns="http://www.w3.org/2000/svg">
<path d="M22.3376 10.1583C22.2988 9.93852 22.2113 9.73025 22.0816 9.54869C21.9519 9.36713 21.7832 9.21687 21.5879 9.10893L19.6638 8.04083C19.5405 7.80174 19.4057 7.56778 19.2607 7.34137L19.2978 5.13902C19.3021 4.91617 19.2565 4.69518 19.1643 4.49224C19.0722 4.28931 18.9357 4.10958 18.7651 3.96623C17.8186 3.16906 16.7381 2.54622 15.574 2.1267C15.3643 2.05043 15.1401 2.02204 14.918 2.04359C14.6959 2.06514 14.4814 2.1361 14.2903 2.25126L12.4033 3.38354C12.1344 3.37077 11.8643 3.37049 11.596 3.3829L9.70724 2.24966C9.51643 2.13442 9.30223 2.06338 9.08037 2.04173C8.85852 2.02008 8.63463 2.04838 8.42514 2.12455C7.26151 2.54564 6.18188 3.16995 5.23649 3.96843C5.0656 4.11191 4.92896 4.2918 4.83658 4.49492C4.7442 4.69805 4.69843 4.91926 4.7026 5.14236L4.73959 7.3427C4.59416 7.5691 4.45893 7.80289 4.33538 8.04156L2.40966 9.11053C2.2141 9.21868 2.04523 9.36924 1.91544 9.55117C1.78565 9.73309 1.69824 9.94177 1.65962 10.1619C1.44313 11.3791 1.4442 12.625 1.66278 13.8418C1.70159 14.0615 1.78906 14.2698 1.91878 14.4514C2.04849 14.6329 2.21717 14.7832 2.41246 14.8911L4.33653 15.9592C4.45981 16.1983 4.59466 16.4323 4.73964 16.6587L4.70261 18.861C4.69826 19.0839 4.74385 19.3049 4.83602 19.5078C4.9282 19.7107 5.06463 19.8905 5.23531 20.0338C6.18176 20.831 7.26221 21.4538 8.42637 21.8733C8.63609 21.9496 8.86022 21.978 9.08233 21.9565C9.30445 21.9349 9.51894 21.864 9.71008 21.7488L11.5971 20.6165C11.866 20.6293 12.136 20.6295 12.4044 20.6172L14.2931 21.7504C14.4839 21.8656 14.6981 21.9367 14.92 21.9583C15.1418 21.9799 15.3657 21.9517 15.5752 21.8755C16.7388 21.4544 17.8185 20.8301 18.7639 20.0316C18.9348 19.8881 19.0714 19.7083 19.1638 19.5051C19.2561 19.302 19.3019 19.0808 19.2978 18.8577L19.2608 16.6574C19.4062 16.4309 19.5414 16.1972 19.665 15.9585L21.5907 14.8895C21.7862 14.7814 21.9551 14.6308 22.0849 14.4489C22.2147 14.2669 22.3021 14.0583 22.3407 13.8382C22.5572 12.621 22.5562 11.3751 22.3376 10.1583ZM16.1248 12C16.1248 12.8159 15.8829 13.6134 15.4296 14.2918C14.9764 14.9701 14.3321 15.4988 13.5784 15.811C12.8246 16.1232 11.9952 16.2049 11.1951 16.0458C10.3949 15.8866 9.65989 15.4937 9.08299 14.9168C8.5061 14.3399 8.11324 13.6049 7.95407 12.8048C7.79491 12.0046 7.8766 11.1752 8.18881 10.4215C8.50102 9.66771 9.02973 9.02348 9.70808 8.57021C10.3864 8.11695 11.184 7.87503 11.9998 7.87503C13.0934 7.87626 14.1419 8.31125 14.9153 9.08457C15.6886 9.85789 16.1236 10.9064 16.1248 12Z" fill="#726B76"/>
</svg>
