<svg width="18" height="18" viewBox="0 0 18 18" fill="none" xmlns="http://www.w3.org/2000/svg">
<path d="M15.8632 8.10159L6.3916 2.31314C6.23206 2.21559 6.04941 2.1623 5.86244 2.15876C5.67547 2.15522 5.49094 2.20156 5.32782 2.29301C5.1647 2.38446 5.0289 2.51772 4.93438 2.67908C4.83986 2.84044 4.79004 3.02406 4.79004 3.21107V14.789C4.79019 14.9759 4.84011 15.1595 4.93467 15.3207C5.02922 15.482 5.16501 15.6152 5.32807 15.7066C5.49113 15.798 5.67559 15.8444 5.8625 15.8409C6.04941 15.8375 6.23203 15.7843 6.3916 15.6869L15.8632 9.89847C16.0171 9.80437 16.1442 9.67235 16.2324 9.51503C16.3206 9.35771 16.3669 9.18038 16.3669 9.00003C16.3669 8.81967 16.3206 8.64234 16.2324 8.48503C16.1442 8.32771 16.0171 8.19568 15.8632 8.10159Z" fill="white"/>
</svg>
