<svg width="20" height="20" viewBox="0 0 20 20" fill="none" xmlns="http://www.w3.org/2000/svg">
<path d="M19.408 17.7541L14.998 13.3441C16.0598 11.9306 16.633 10.21 16.631 8.44214C16.631 3.92614 12.957 0.252136 8.44098 0.252136C3.92498 0.252136 0.250977 3.92614 0.250977 8.44214C0.250977 12.9571 3.92498 16.6321 8.44098 16.6321C10.209 16.6338 11.9296 16.0603 13.343 14.9981L17.753 19.4081C17.9753 19.6122 18.2679 19.7225 18.5697 19.7161C18.8714 19.7097 19.159 19.587 19.3725 19.3736C19.586 19.1603 19.7089 18.8728 19.7155 18.571C19.7221 18.2693 19.6119 17.9766 19.408 17.7541ZM2.59098 8.44114C2.59098 7.28412 2.93407 6.15308 3.57688 5.19105C4.21969 4.22902 5.13333 3.47921 6.20228 3.03644C7.27123 2.59367 8.44747 2.47782 9.58225 2.70354C10.717 2.92927 11.7594 3.48642 12.5776 4.30456C13.3957 5.1227 13.9528 6.16507 14.1786 7.29986C14.4043 8.43465 14.2884 9.61089 13.8457 10.6798C13.4029 11.7488 12.6531 12.6624 11.6911 13.3052C10.729 13.948 9.598 14.2911 8.44098 14.2911C6.89003 14.2893 5.40313 13.6724 4.30645 12.5757C3.20976 11.479 2.59283 9.99208 2.59098 8.44114Z" fill="white"/>
</svg>
