<svg width="20" height="20" viewBox="0 0 20 20" fill="none" xmlns="http://www.w3.org/2000/svg">
<path d="M18.125 7.50006C18.1246 7.16866 17.9928 6.85093 17.7585 6.6166C17.5241 6.38226 17.2064 6.25044 16.875 6.25006H14.375V3.75006C14.3746 3.41866 14.2428 3.10093 14.0085 2.8666C13.7741 2.63226 13.4564 2.50044 13.125 2.50006H3.125C2.7936 2.50044 2.47587 2.63226 2.24154 2.8666C2.0072 3.10093 1.87538 3.41866 1.875 3.75006V13.7501C1.875 13.8681 1.9084 13.9837 1.97134 14.0835C2.03429 14.1833 2.12421 14.2632 2.23069 14.3141C2.33718 14.3649 2.45588 14.3846 2.57307 14.3708C2.69026 14.357 2.80115 14.3103 2.89291 14.2361L5.625 12.0274L5.62508 14.3751C5.62546 14.7065 5.75727 15.0242 5.99161 15.2585C6.22595 15.4929 6.54367 15.6247 6.87508 15.6251H14.1866L17.1072 17.9861C17.1989 18.0603 17.3098 18.107 17.427 18.1208C17.5442 18.1346 17.6629 18.1149 17.7694 18.0641C17.8759 18.0132 17.9658 17.9333 18.0287 17.8335C18.0917 17.7337 18.1251 17.6181 18.1251 17.5001L18.125 7.50006ZM14.8006 14.514C14.6894 14.4241 14.5507 14.3751 14.4077 14.3751H6.87508L6.875 11.8751H13.125C13.4564 11.8747 13.7741 11.7429 14.0085 11.5085C14.2428 11.2742 14.3746 10.9565 14.375 10.6251V7.50006H16.875L16.8751 16.1911L14.8006 14.514Z" fill="white"/>
</svg>
