<svg width="20" height="20" viewBox="0 0 20 20" fill="none" xmlns="http://www.w3.org/2000/svg">
<path d="M18.1494 8.93307L6.90186 2.05929C6.7124 1.94344 6.49551 1.88016 6.27348 1.87596C6.05145 1.87175 5.83232 1.92678 5.63861 2.03538C5.44491 2.14398 5.28365 2.30223 5.1714 2.49384C5.05916 2.68545 5 2.90351 5 3.12557V16.8744C5.00018 17.0963 5.05946 17.3143 5.17174 17.5058C5.28403 17.6973 5.44527 17.8555 5.63891 17.964C5.83255 18.0726 6.0516 18.1276 6.27355 18.1235C6.49551 18.1194 6.71237 18.0563 6.90186 17.9406L18.1494 11.0669C18.3321 10.9551 18.4831 10.7983 18.5878 10.6115C18.6926 10.4247 18.7476 10.2141 18.7476 9.99997C18.7476 9.7858 18.6926 9.57521 18.5878 9.3884C18.4831 9.20159 18.3321 9.0448 18.1494 8.93307Z" fill="#A45CF3"/>
</svg>
