<svg width="24" height="24" viewBox="0 0 24 24" fill="none" xmlns="http://www.w3.org/2000/svg">
<path d="M20.25 3.75H3.75C3.35231 3.75045 2.97105 3.90864 2.68984 4.18984C2.40864 4.47105 2.25045 4.85231 2.25 5.25V18.7501C2.25 18.9471 2.2888 19.1421 2.36419 19.3241C2.43958 19.5061 2.55008 19.6715 2.68938 19.8107C2.82868 19.95 2.99405 20.0605 3.17605 20.1359C3.35805 20.2112 3.55311 20.25 3.75009 20.25L5.00537 20.2499C5.1472 20.2498 5.28611 20.2096 5.406 20.1338C5.52588 20.058 5.62182 19.9498 5.68268 19.8217C6.04792 19.0522 6.62397 18.4021 7.34392 17.9469C8.06388 17.4916 8.8982 17.25 9.75 17.25C10.6018 17.25 11.4361 17.4916 12.1561 17.9469C12.876 18.4021 13.4521 19.0522 13.8173 19.8217C13.8782 19.9498 13.9741 20.0581 14.094 20.1339C14.2139 20.2096 14.3529 20.2499 14.4947 20.2499L20.25 20.25C20.6477 20.2495 21.029 20.0914 21.3102 19.8102C21.5914 19.529 21.7495 19.1477 21.75 18.75V5.25C21.7495 4.85231 21.5914 4.47105 21.3102 4.18984C21.029 3.90864 20.6477 3.75045 20.25 3.75ZM9.75 15.75C9.15666 15.75 8.57664 15.5741 8.08329 15.2444C7.58994 14.9148 7.20542 14.4462 6.97836 13.8981C6.7513 13.3499 6.69189 12.7467 6.80764 12.1647C6.9234 11.5828 7.20912 11.0482 7.62868 10.6287C8.04824 10.2091 8.58279 9.9234 9.16473 9.80764C9.74667 9.69189 10.3499 9.7513 10.8981 9.97836C11.4462 10.2054 11.9148 10.5899 12.2444 11.0833C12.5741 11.5766 12.75 12.1567 12.75 12.75C12.7491 13.5454 12.4327 14.3079 11.8703 14.8703C11.3079 15.4327 10.5454 15.7491 9.75 15.75ZM20.25 18.75L14.9469 18.7499C14.6197 18.1861 14.2028 17.6795 13.7124 17.25H18C18.1989 17.25 18.3897 17.171 18.5303 17.0303C18.671 16.8897 18.75 16.6989 18.75 16.5V7.5C18.75 7.30109 18.671 7.11032 18.5303 6.96967C18.3897 6.82902 18.1989 6.75 18 6.75H6C5.80109 6.75 5.61032 6.82902 5.46967 6.96967C5.32902 7.11032 5.25 7.30109 5.25 7.5V16.5C5.25011 16.6666 5.30573 16.8285 5.40809 16.96C5.51044 17.0915 5.65369 17.1851 5.8152 17.2261C5.31296 17.6606 4.88645 18.1756 4.5531 18.75L3.75 18.7501V5.25H20.25V18.75Z" fill="#726B76"/>
</svg>
