<svg width="24" height="24" viewBox="0 0 24 24" fill="none" xmlns="http://www.w3.org/2000/svg">
<path d="M15.75 17.624V12.749H8.953C8.75409 12.749 8.56332 12.67 8.42267 12.5294C8.28202 12.3887 8.203 12.1979 8.203 11.999C8.203 11.8001 8.28202 11.6093 8.42267 11.4687C8.56332 11.328 8.75409 11.249 8.953 11.249H15.75V6.37402C15.7492 5.67807 15.4724 5.01086 14.9803 4.51874C14.4882 4.02663 13.8209 3.74982 13.125 3.74902H4.125C3.42905 3.74982 2.76183 4.02663 2.26972 4.51874C1.77761 5.01086 1.50079 5.67807 1.5 6.37402V17.624C1.50079 18.32 1.77761 18.9872 2.26972 19.4793C2.76183 19.9714 3.42905 20.2482 4.125 20.249H13.125C13.8209 20.2482 14.4882 19.9714 14.9803 19.4793C15.4724 18.9872 15.7492 18.32 15.75 17.624Z" fill="#261F2B"/>
<path d="M19.94 12.75L17.47 15.22C17.3375 15.3621 17.2654 15.5502 17.2688 15.7445C17.2723 15.9388 17.351 16.1242 17.4884 16.2616C17.6258 16.399 17.8112 16.4777 18.0055 16.4811C18.1998 16.4846 18.3878 16.4124 18.53 16.28L22.28 12.53C22.4205 12.3893 22.4993 12.1987 22.4993 12C22.4993 11.8012 22.4205 11.6106 22.28 11.47L18.53 7.71997C18.3878 7.58749 18.1998 7.51537 18.0055 7.51879C17.8112 7.52222 17.6258 7.60093 17.4884 7.73835C17.351 7.87576 17.2723 8.06115 17.2688 8.25545C17.2654 8.44975 17.3375 8.63779 17.47 8.77997L19.94 11.25H15.75V12.75H19.94Z" fill="#261F2B"/>
</svg>
