<svg width="20" height="20" viewBox="0 0 20 20" fill="none" xmlns="http://www.w3.org/2000/svg">
<path d="M19.408 17.754L14.998 13.344C16.0598 11.9304 16.633 10.2099 16.631 8.44195C16.631 3.92595 12.957 0.251953 8.44098 0.251953C3.92498 0.251953 0.250977 3.92595 0.250977 8.44195C0.250977 12.957 3.92498 16.632 8.44098 16.632C10.209 16.6336 11.9296 16.0601 13.343 14.998L17.753 19.408C17.9753 19.612 18.2679 19.7224 18.5697 19.7159C18.8714 19.7095 19.159 19.5868 19.3725 19.3735C19.586 19.1601 19.7089 18.8726 19.7155 18.5708C19.7221 18.2691 19.6119 17.9764 19.408 17.754ZM2.59098 8.44095C2.59098 7.28393 2.93407 6.15289 3.57688 5.19087C4.21969 4.22884 5.13333 3.47903 6.20228 3.03626C7.27123 2.59349 8.44747 2.47764 9.58225 2.70336C10.717 2.92908 11.7594 3.48624 12.5776 4.30438C13.3957 5.12252 13.9528 6.16489 14.1786 7.29967C14.4043 8.43446 14.2884 9.6107 13.8457 10.6797C13.4029 11.7486 12.6531 12.6622 11.6911 13.3051C10.729 13.9479 9.598 14.291 8.44098 14.291C6.89003 14.2891 5.40313 13.6722 4.30645 12.5755C3.20976 11.4788 2.59283 9.9919 2.59098 8.44095Z" fill="white"/>
</svg>
