<svg width="24" height="24" viewBox="0 0 24 24" fill="none" xmlns="http://www.w3.org/2000/svg">
<path d="M22.3375 10.1583C22.2986 9.93852 22.2112 9.73025 22.0815 9.54869C21.9517 9.36713 21.7831 9.21687 21.5878 9.10893L19.6637 8.04083C19.5404 7.80174 19.4056 7.56778 19.2606 7.34137L19.2976 5.13902C19.302 4.91617 19.2564 4.69518 19.1642 4.49224C19.072 4.28931 18.9356 4.10958 18.7649 3.96623C17.8185 3.16906 16.738 2.54622 15.5739 2.1267C15.3641 2.05043 15.14 2.02204 14.9179 2.04359C14.6958 2.06514 14.4813 2.1361 14.2902 2.25126L12.4032 3.38354C12.1343 3.37077 11.8642 3.37049 11.5958 3.3829L9.70712 2.24966C9.5163 2.13442 9.30211 2.06338 9.08025 2.04173C8.85839 2.02008 8.6345 2.04838 8.42501 2.12455C7.26139 2.54564 6.18176 3.16995 5.23637 3.96843C5.06547 4.11191 4.92884 4.2918 4.83646 4.49492C4.74408 4.69805 4.6983 4.91926 4.70248 5.14236L4.73947 7.3427C4.59403 7.5691 4.45881 7.80289 4.33526 8.04156L2.40954 9.11053C2.21398 9.21868 2.04511 9.36924 1.91532 9.55117C1.78553 9.73309 1.69812 9.94177 1.65949 10.1619C1.44301 11.3791 1.44408 12.625 1.66265 13.8418C1.70147 14.0615 1.78894 14.2698 1.91865 14.4514C2.04837 14.6329 2.21705 14.7832 2.41234 14.8911L4.33641 15.9592C4.45968 16.1983 4.59454 16.4323 4.73952 16.6587L4.70248 18.861C4.69814 19.0839 4.74372 19.3049 4.8359 19.5078C4.92808 19.7107 5.06451 19.8905 5.23518 20.0338C6.18164 20.831 7.26209 21.4538 8.42625 21.8733C8.63597 21.9496 8.86009 21.978 9.08221 21.9565C9.30433 21.9349 9.51881 21.864 9.70996 21.7488L11.5969 20.6165C11.8658 20.6293 12.1359 20.6295 12.4043 20.6172L14.293 21.7504C14.4838 21.8656 14.698 21.9367 14.9199 21.9583C15.1417 21.9799 15.3656 21.9517 15.5751 21.8755C16.7387 21.4544 17.8183 20.8301 18.7637 20.0316C18.9346 19.8881 19.0713 19.7083 19.1637 19.5051C19.256 19.302 19.3018 19.0808 19.2976 18.8577L19.2606 16.6574C19.4061 16.4309 19.5413 16.1972 19.6648 15.9585L21.5906 14.8895C21.7861 14.7814 21.955 14.6308 22.0848 14.4489C22.2146 14.2669 22.302 14.0583 22.3406 13.8382C22.5571 12.621 22.556 11.3751 22.3375 10.1583ZM16.1247 12C16.1247 12.8159 15.8828 13.6134 15.4295 14.2918C14.9762 14.9701 14.332 15.4988 13.5783 15.811C12.8245 16.1232 11.9951 16.2049 11.1949 16.0458C10.3948 15.8866 9.65976 15.4937 9.08287 14.9168C8.50598 14.3399 8.11311 13.6049 7.95395 12.8048C7.79479 12.0046 7.87647 11.1752 8.18869 10.4215C8.5009 9.66771 9.02961 9.02348 9.70796 8.57021C10.3863 8.11695 11.1838 7.87503 11.9997 7.87503C13.0933 7.87626 14.1418 8.31125 14.9151 9.08457C15.6885 9.85789 16.1235 10.9064 16.1247 12Z" fill="#726B76"/>
</svg>
