<svg width="18" height="17" viewBox="0 0 18 17" fill="none" xmlns="http://www.w3.org/2000/svg">
<path d="M17.125 5.5C17.1246 5.1686 16.9928 4.85087 16.7585 4.61654C16.5241 4.3822 16.2064 4.25038 15.875 4.25H13.375V1.75C13.3746 1.4186 13.2428 1.10087 13.0085 0.866535C12.7741 0.632197 12.4564 0.500379 12.125 0.5H2.125C1.7936 0.500379 1.47587 0.632197 1.24154 0.866535C1.0072 1.10087 0.875379 1.4186 0.875 1.75V11.75C0.874997 11.868 0.908399 11.9836 0.971345 12.0834C1.03429 12.1832 1.12421 12.2632 1.23069 12.314C1.33718 12.3649 1.45588 12.3845 1.57307 12.3707C1.69026 12.3569 1.80115 12.3102 1.89291 12.236L4.625 10.0273L4.62508 12.375C4.62546 12.7064 4.75727 13.0241 4.99161 13.2585C5.22595 13.4928 5.54367 13.6246 5.87508 13.625H13.1866L16.1072 15.986C16.1989 16.0602 16.3098 16.1069 16.427 16.1207C16.5442 16.1345 16.6629 16.1149 16.7694 16.064C16.8759 16.0132 16.9658 15.9332 17.0287 15.8334C17.0917 15.7336 17.1251 15.618 17.1251 15.5L17.125 5.5ZM13.8006 12.514C13.6894 12.4241 13.5507 12.375 13.4077 12.375H5.87508L5.875 9.875H12.125C12.4564 9.87462 12.7741 9.7428 13.0085 9.50846C13.2428 9.27413 13.3746 8.9564 13.375 8.625V5.5H15.875L15.8751 14.191L13.8006 12.514Z" fill="#A45CF3"/>
</svg>
