<svg width="20" height="20" viewBox="0 0 20 20" fill="none" xmlns="http://www.w3.org/2000/svg">
<path d="M10 13.7496C10.9941 13.7486 11.9473 13.3532 12.6503 12.6503C13.3533 11.9474 13.7488 10.9944 13.75 10.0002V4.99963C13.75 4.00507 13.3549 3.05124 12.6517 2.34798C11.9484 1.64472 10.9946 1.24963 10 1.24963C9.00544 1.24963 8.05161 1.64472 7.34835 2.34798C6.64509 3.05124 6.25 4.00507 6.25 4.99963V9.99963C6.25109 10.9939 6.64652 11.9471 7.34955 12.6501C8.05257 13.3531 9.00577 13.7485 10 13.7496Z" fill="#A45CF3"/>
<path d="M15.6583 10.004C15.4938 9.9875 15.3294 10.0362 15.2004 10.1396C15.0715 10.243 14.9882 10.3929 14.9686 10.557C14.8314 11.779 14.2487 12.9077 13.3319 13.7272C12.4152 14.5468 11.2285 14.9998 9.99883 14.9997C8.76912 14.9997 7.58256 14.5465 6.66587 13.7268C5.74919 12.9071 5.16667 11.7784 5.02962 10.5564C5.00945 10.3925 4.92603 10.2431 4.79717 10.1399C4.66831 10.0367 4.50422 9.98791 4.33992 10.004C4.1751 10.0223 4.02428 10.1053 3.9206 10.2347C3.81691 10.3642 3.76884 10.5295 3.78694 10.6943C3.94604 12.1126 4.58813 13.433 5.60545 14.434C6.62278 15.4349 7.95342 16.0555 9.3741 16.1915V18.1247C9.3741 18.2905 9.43995 18.4495 9.55716 18.5667C9.67437 18.6839 9.83334 18.7497 9.9991 18.7497C10.1649 18.7497 10.3238 18.6839 10.441 18.5667C10.5583 18.4495 10.6241 18.2905 10.6241 18.1247V16.1916C12.045 16.0559 13.3759 15.4353 14.3933 14.4341C15.4107 13.433 16.0526 12.1123 16.2113 10.6937C16.2293 10.5289 16.1813 10.3637 16.0776 10.2344C15.9739 10.105 15.8231 10.0222 15.6583 10.004Z" fill="#A45CF3"/>
</svg>
