<svg width="18" height="22" viewBox="0 0 18 22" fill="none" xmlns="http://www.w3.org/2000/svg">
<path d="M17.9781 0.540591C17.9781 0.403933 17.9157 0.27452 17.8089 0.18907C17.7026 0.103574 17.562 0.0721659 17.4292 0.101594L5.75099 2.7371C5.54576 2.78345 5.39988 2.96583 5.39988 3.17605V15.991C4.82769 15.343 4.03101 14.9389 3.14983 14.9389C1.41292 14.9389 0 16.5048 0 18.4262C0 20.3431 1.41292 21.909 3.14983 21.909C4.70278 21.909 5.99349 20.656 6.25016 19.0208H6.29983V3.53577L17.0782 1.10351V12.2206C16.4971 11.5646 15.6837 11.1546 14.7817 11.1546C13.0178 11.1546 11.5824 12.716 11.5824 14.6374C11.5824 16.5588 13.0178 18.1202 14.7817 18.1202C16.4903 18.1202 17.8825 16.6539 17.9682 14.8157H17.9781V0.540591Z" fill="#A45CF3"/>
</svg>
