<svg width="20" height="20" viewBox="0 0 20 20" fill="none" xmlns="http://www.w3.org/2000/svg">
<path d="M16.25 2.5H3.75C3.4186 2.50038 3.10087 2.6322 2.86654 2.86654C2.6322 3.10087 2.50038 3.4186 2.5 3.75V8.33336C2.5 15.3219 8.42392 17.6399 9.61143 18.0337C9.86343 18.1191 10.1366 18.1191 10.3886 18.0337C11.5761 17.6399 17.5 15.3219 17.5 8.33336V3.75C17.4996 3.4186 17.3678 3.10087 17.1335 2.86654C16.8991 2.6322 16.5814 2.50038 16.25 2.5ZM9.375 6.875C9.375 6.70924 9.44085 6.55027 9.55806 6.43306C9.67527 6.31585 9.83424 6.25 10 6.25C10.1658 6.25 10.3247 6.31585 10.4419 6.43306C10.5592 6.55027 10.625 6.70924 10.625 6.875V10C10.625 10.1658 10.5592 10.3247 10.4419 10.4419C10.3247 10.5592 10.1658 10.625 10 10.625C9.83424 10.625 9.67527 10.5592 9.55806 10.4419C9.44085 10.3247 9.375 10.1658 9.375 10V6.875ZM10 13.75C9.81458 13.75 9.63332 13.695 9.47915 13.592C9.32498 13.489 9.20482 13.3426 9.13386 13.1713C9.06291 13 9.04434 12.8115 9.08051 12.6296C9.11669 12.4477 9.20598 12.2807 9.33709 12.1496C9.4682 12.0185 9.63525 11.9292 9.8171 11.893C9.99896 11.8568 10.1875 11.8754 10.3588 11.9464C10.5301 12.0173 10.6765 12.1375 10.7795 12.2917C10.8825 12.4458 10.9375 12.6271 10.9375 12.8125C10.9375 13.0611 10.8387 13.2996 10.6629 13.4754C10.4871 13.6512 10.2486 13.75 10 13.75Z" fill="#FF3C38"/>
</svg>
