<svg width="16" height="17" viewBox="0 0 16 17" fill="none" xmlns="http://www.w3.org/2000/svg">
<path d="M14.25 0.5H1.75C1.4186 0.500379 1.10087 0.632197 0.866535 0.866535C0.632197 1.10087 0.500379 1.4186 0.5 1.75V6.33336C0.5 13.3219 6.42392 15.6399 7.61143 16.0337C7.86343 16.1191 8.13657 16.1191 8.38857 16.0337C9.57608 15.6399 15.5 13.3219 15.5 6.33336V1.75C15.4996 1.4186 15.3678 1.10087 15.1335 0.866535C14.8991 0.632197 14.5814 0.500379 14.25 0.5ZM7.375 4.875C7.375 4.70924 7.44085 4.55027 7.55806 4.43306C7.67527 4.31585 7.83424 4.25 8 4.25C8.16576 4.25 8.32473 4.31585 8.44194 4.43306C8.55915 4.55027 8.625 4.70924 8.625 4.875V8C8.625 8.16576 8.55915 8.32473 8.44194 8.44194C8.32473 8.55915 8.16576 8.625 8 8.625C7.83424 8.625 7.67527 8.55915 7.55806 8.44194C7.44085 8.32473 7.375 8.16576 7.375 8V4.875ZM8 11.75C7.81458 11.75 7.63332 11.695 7.47915 11.592C7.32498 11.489 7.20482 11.3426 7.13386 11.1713C7.06291 11 7.04434 10.8115 7.08051 10.6296C7.11669 10.4477 7.20598 10.2807 7.33709 10.1496C7.4682 10.0185 7.63525 9.92919 7.8171 9.89301C7.99896 9.85684 8.18746 9.87541 8.35877 9.94636C8.53007 10.0173 8.67649 10.1375 8.7795 10.2917C8.88252 10.4458 8.9375 10.6271 8.9375 10.8125C8.9375 11.0611 8.83873 11.2996 8.66291 11.4754C8.4871 11.6512 8.24864 11.75 8 11.75Z" fill="#FF3C38"/>
</svg>
